<svg xmlns="http://www.w3.org/2000/svg" xmlns:xlink="http://www.w3.org/1999/xlink" id="Layer_1" x="0px" y="0px" viewBox="0 0 559.7 105.9" style="enable-background:new 0 0 559.7 105.9;" xml:space="preserve"><style type="text/css">	.st0{fill:#00AFF0;}</style><g>	<g>		<path class="st0" d="M140.7,33.3c0,5.2-1.8,10-4.9,13.8c-1.6,0.4-3.1,0.9-4.7,1.6c-0.2,0.1-0.4,0.3-0.6,0.4   c-1.2,0.7-1.9,2.3-1.6,3.7c-3.4,1.9-7.2,2.9-11.4,2.9c-5,0-9.5-1.5-13.3-4.1c-3,2.4-6.4,3.9-10.2,4.1c-2.4,2.4-5.3,4.7-8.6,6.6   c0,0.8,0.1,1.6,0.1,2.4c0,3.7-0.4,7-1.2,9.8c0.6,0.7,1.1,1.7,1.4,3.1c0.9,4.3-2.6,4.8-6.1,4.9c-1.3,0-2.2,0.1-3.5-0.7   c-1.1-0.6-0.7-2.3-0.7-3.7c-1.3-2.5-2.2-6.2-2.5-10.5c-0.1,0-0.3,0.1-0.4,0.1c0.1,0.6,0.1,1.3,0.1,2c0,2.6-0.4,5-1.1,7.1   c0.9,0.7,1.5,1.6,1.7,2.5c0,0.2,0.1,0.5,0.1,0.7c0,2.7-3.4,4.9-7.5,4.9c-2.6,0-5.6-0.5-6.2-2.2c-0.6-1.7,0.1-3.6-0.2-5.3l0,0   c-0.8-2-1.3-4.5-1.4-7.2c-1.5,0.1-3,0.2-4.5,0.2c-6.6,0-12.9-0.9-18.6-2.5c0.1,1.8,0,3.6-0.3,5.1c1.4,0.6,2.4,1.8,2.8,3.9   c0.7,3.5-2.8,4.5-6.4,4.5c-2.7,0-5.6-0.4-6.3-2.4c-0.4-0.5-0.9-1.4-1.8-2.9c-0.1,0.4-0.3,0.7-0.4,1.1c1.2,0.7,1.9,1.7,1.9,2.8   c0,2.2-3,4-6.7,4S10,83.6,11,80c-0.2-0.6-0.3-1.2-0.3-1.6C9.1,75.1,8.1,70.3,8.1,65c0-2.3,0.2-4.5,0.5-6.5C6.7,56,5.6,52.7,5.6,49   c0-0.8,0.1-1.6,0.2-2.3C5.5,46,5.2,45.2,5,44.4c0,0,0,0,0,0c-0.9-2.5-1.3-5.2-1.3-7.9c0-1.1,0.1-2.1,0.2-3.2   C4.6,17.2,15.5,4.2,29,3.7c1.1-0.2,2.2-0.2,3.4-0.2c1.9,0,3.7,0.2,5.3,0.6c4.9-1.1,10.1-1.7,15.5-1.7c9.7,0,18.8,1.9,26.4,5.2   c1.5-1.6,3.1-2.9,4.8-3.9c0-0.1,0-0.3,0-0.4c0-1.8,1.6-3.2,3.6-3.2c1.2,0,2.3,0.5,3,1.4c0.4-0.1,0.8-0.1,1.2-0.1   c0.6-0.6,1.5-0.9,2.4-0.9c1.3,0,2.4,0.6,3,1.5c5,1.4,9.3,5.1,12.3,10.2c2.4-0.8,4.9-1.3,7.6-1.3c3.3,0,6.5,0.7,9.3,1.9   c0.4-0.1,0.8-0.2,1.2-0.2c1.7,0,1.8,1.1,3,2.6C136.9,19.2,140.7,25.8,140.7,33.3z"/>		<path class="st0" d="M11.2,10.6c0-0.4,0-0.8-0.2-1.1C10.1,7.8,7,7.7,4.1,9.3c-3,1.6-4.7,4.2-3.9,5.9c0.6,1.1,2.8,2.7,4.1,1.1   C5.6,14.8,6.4,10.4,11.2,10.6z"/>	</g>	<g>		<path class="st0" d="M173.7,2.2v79.2c0,1.5-1.2,2.7-2.7,2.7h-7.9V4.9c0-1.5,1.2-2.7,2.7-2.7H173.7z"/>		<path class="st0" d="M283.8,28.6l-36.8,75.8c-0.4,0.9-1.4,1.5-2.4,1.5H235l13.9-28.5c0.5-1,0.3-2.2-0.4-3.1l-24-27.8   c0,0-2.3-2.7-2.8-3.2c-3.5-3.5-7.8-5.3-12.9-5.3c-5,0-9.3,1.8-12.9,5.3c-3.6,3.6-5.3,7.9-5.3,12.9c0,5,1.8,9.3,5.3,12.9   c3.6,3.6,7.9,5.3,12.9,5.3c5.1,0,9.4-1.8,13-5.3c0.2-0.2,0.5-0.5,0.8-0.9c1-1.2,2.9-1.3,4-0.1L232,74c-1.5,1.8-1.5,1.8-2.6,2.9   c-5.7,5.7-12.6,8.5-20.6,8.5c-8,0-14.9-2.8-20.5-8.5c-5.5-5.5-8.6-12.9-8.6-20.7c0-8.1,2.8-14.9,8.5-20.6   c5.7-5.7,12.6-8.5,20.6-8.5c8.1,0,14.9,2.8,20.6,8.5c0.2,0.2,24.7,28.4,24.7,28.4l17.1-34c0.5-0.9,1.4-1.5,2.4-1.5H283.8z"/>		<path class="st0" d="M312.6,42v39.4c0,1.5-1.2,2.7-2.7,2.7H302V4.9c0-1.5,1.2-2.7,2.7-2.7h7.9v27.2c0,1.2,0.8,2.3,2,2.6l30.2,7.7   V4.9c0-1.5,1.2-2.7,2.7-2.7h7.9v79.2c0,1.5-1.2,2.7-2.7,2.7h-7.9V52.3c0-1.2-0.8-2.3-2-2.6L312.6,42z"/>		<path class="st0" d="M371.5,8.1c1.5,1.4,2.2,3.2,2.2,5.3c0,2.1-0.7,3.8-2.2,5.3c-1.5,1.4-3.2,2.1-5.3,2.1c-2,0-3.8-0.7-5.2-2.1   c-1.5-1.4-2.2-3.2-2.2-5.3c0-2.1,0.7-3.8,2.2-5.3c1.5-1.4,3.2-2.1,5.2-2.1C368.3,6,370,6.7,371.5,8.1z M371.6,31.4v50   c0,1.5-1.2,2.7-2.7,2.7H361v-50c0-1.5,1.2-2.7,2.7-2.7H371.6z"/>		<path class="st0" d="M387.4,77.5v21.6c0,1.5-1.2,2.7-2.7,2.7h-7.9V55.6c0-15.7,12.7-28.5,28.5-28.5h0c8.1,0,14.9,2.8,20.6,8.5   c5.7,5.7,8.5,12.5,8.5,20.6c0,8.1-2.8,14.9-8.5,20.6c-5.7,5.7-12.5,8.5-20.6,8.5C398.5,85.5,392.5,82.8,387.4,77.5z M387.4,55.5   v1.6c0,4.5,1.7,8.9,4.9,12c0,0,0.1,0.1,0.1,0.1c3.5,3.5,7.8,5.3,12.9,5.3c4.8,0,9.5-1.9,12.9-5.3c3.6-3.6,5.4-7.9,5.4-12.9   c0-5-1.8-9.3-5.3-12.9c-3.6-3.6-7.9-5.4-12.9-5.4c-5.1,0-9.4,1.8-12.9,5.4c0,0-0.1,0.1-0.1,0.1C389.1,46.7,387.4,51,387.4,55.5z"/>		<path class="st0" d="M450.1,77.5v21.6c0,1.5-1.2,2.7-2.7,2.7h-7.9V55.6c0-15.7,12.7-28.5,28.5-28.5h0c8.1,0,14.9,2.8,20.6,8.5   c5.7,5.7,8.5,12.5,8.5,20.6c0,8.1-2.8,14.9-8.5,20.6c-5.7,5.7-12.5,8.5-20.6,8.5C461.2,85.5,455.2,82.8,450.1,77.5z M450.1,55.5   v1.6c0,4.5,1.7,8.9,4.9,12c0,0,0.1,0.1,0.1,0.1c3.5,3.5,7.8,5.3,12.9,5.3c4.8,0,9.5-1.9,12.9-5.3c3.6-3.6,5.4-7.9,5.4-12.9   c0-5-1.8-9.3-5.3-12.9C477.3,39.8,473,38,468,38c-5.1,0-9.4,1.8-12.9,5.4c0,0-0.1,0.1-0.1,0.1C451.8,46.7,450.1,51,450.1,55.5z"/>		<path class="st0" d="M530.6,27.1c8.1,0,14.9,2.8,20.6,8.5c5.7,5.7,8.5,12.6,8.5,20.6c0,8.1-2.8,14.9-8.5,20.6   c-5.7,5.7-12.5,8.5-20.6,8.5c-8,0-14.9-2.8-20.6-8.5c-5.7-5.7-8.5-12.6-8.5-20.6c0-8.1,2.8-14.9,8.5-20.6   C515.7,30,522.5,27.1,530.6,27.1z M517.6,43.4c-3.6,3.6-5.3,7.9-5.3,12.9c0,5.1,1.8,9.4,5.3,12.9c3.6,3.5,7.9,5.3,12.9,5.3   c5,0,9.4-1.8,12.9-5.3c3.6-3.5,5.3-7.8,5.3-12.9c0-5-1.8-9.3-5.3-12.9c-3.6-3.6-7.9-5.4-12.9-5.4C525.5,38,521.2,39.8,517.6,43.4z   "/>	</g></g></svg>